<svg width="35" height="34" viewBox="0 0 35 34" fill="none" xmlns="http://www.w3.org/2000/svg">
<path d="M11 31.25C8.70833 31.25 6.76042 30.4479 5.15625 28.8438C3.55208 27.2396 2.75 25.2917 2.75 23C2.75 20.7083 3.55208 18.7604 5.15625 17.1563C6.76042 15.5521 8.70833 14.75 11 14.75C11.2139 14.75 11.424 14.7576 11.6302 14.7729C11.8365 14.7882 12.0389 14.8111 12.2375 14.8417C11.6111 15.2847 11.1108 15.8615 10.7365 16.5719C10.3622 17.2823 10.175 18.05 10.175 18.875C10.175 20.25 10.6563 21.4187 11.6188 22.3812C12.5813 23.3438 13.75 23.825 15.125 23.825C15.9653 23.825 16.7368 23.6378 17.4396 23.2635C18.1424 22.8892 18.7153 22.3889 19.1583 21.7625C19.1889 21.9611 19.2118 22.1635 19.2271 22.3698C19.2424 22.576 19.25 22.7861 19.25 23C19.25 25.2917 18.4479 27.2396 16.8438 28.8438C15.2396 30.4479 13.2917 31.25 11 31.25ZM11 29.4167C12.3444 29.4167 13.5514 29.0462 14.6208 28.3052C15.6903 27.5642 16.4694 26.5979 16.9583 25.4063C16.6528 25.4826 16.3472 25.5438 16.0417 25.5896C15.7361 25.6354 15.4306 25.6583 15.125 25.6583C13.2458 25.6583 11.6455 24.9976 10.324 23.676C9.00243 22.3545 8.34167 20.7542 8.34167 18.875C8.34167 18.5694 8.36458 18.2639 8.41042 17.9583C8.45625 17.6528 8.51736 17.3472 8.59375 17.0417C7.40208 17.5306 6.43576 18.3097 5.69479 19.3792C4.95382 20.4486 4.58333 21.6556 4.58333 23C4.58333 24.7722 5.20972 26.2847 6.4625 27.5375C7.71528 28.7903 9.22778 29.4167 11 29.4167Z" fill="#4B4B4B"/>
<g clip-path="url(#clip0_2093_70)">
<path d="M24.5 0.875V2.625M24.5 18.375V20.125M17.6925 3.6925L18.935 4.935M30.065 16.065L31.3075 17.3075M14.875 10.5H16.625M32.375 10.5H34.125M17.6925 17.3075L18.935 16.065M30.065 4.935L31.3075 3.6925M28.875 10.5C28.875 12.9162 26.9162 14.875 24.5 14.875C22.0838 14.875 20.125 12.9162 20.125 10.5C20.125 8.08375 22.0838 6.125 24.5 6.125C26.9162 6.125 28.875 8.08375 28.875 10.5Z" stroke="#4B4B4B" stroke-width="2" stroke-linecap="round" stroke-linejoin="round"/>
</g>
<defs>
<clipPath id="clip0_2093_70">
<rect width="21" height="21" fill="white" transform="translate(14)"/>
</clipPath>
</defs>
</svg>
