<svg width="26" height="26" viewBox="0 0 26 26" fill="none" xmlns="http://www.w3.org/2000/svg">
<path d="M24.9166 20.5833C24.9166 21.158 24.6884 21.7091 24.282 22.1154C23.8757 22.5217 23.3246 22.75 22.75 22.75H3.24998C2.67534 22.75 2.12424 22.5217 1.71791 22.1154C1.31159 21.7091 1.08331 21.158 1.08331 20.5833V8.66667C1.08331 8.09203 1.31159 7.54093 1.71791 7.1346C2.12424 6.72827 2.67534 6.5 3.24998 6.5H7.58331L9.74998 3.25H16.25L18.4166 6.5H22.75C23.3246 6.5 23.8757 6.72827 24.282 7.1346C24.6884 7.54093 24.9166 8.09203 24.9166 8.66667V20.5833Z" stroke="white" stroke-width="2" stroke-linecap="round" stroke-linejoin="round"/>
<path d="M13 18.4167C15.3932 18.4167 17.3333 16.4766 17.3333 14.0833C17.3333 11.6901 15.3932 9.75 13 9.75C10.6067 9.75 8.66665 11.6901 8.66665 14.0833C8.66665 16.4766 10.6067 18.4167 13 18.4167Z" stroke="white" stroke-width="2" stroke-linecap="round" stroke-linejoin="round"/>
</svg>
