<svg width="25" height="25" viewBox="0 0 25 25" fill="none" xmlns="http://www.w3.org/2000/svg">
<path d="M1.04169 1.04169H5.20835L8.00002 14.9896C8.09528 15.4692 8.35618 15.9 8.73705 16.2066C9.11792 16.5132 9.5945 16.6761 10.0834 16.6667H20.2084C20.6972 16.6761 21.1738 16.5132 21.5547 16.2066C21.9355 15.9 22.1964 15.4692 22.2917 14.9896L23.9584 6.25002H6.25002M10.4167 21.875C10.4167 22.4503 9.95032 22.9167 9.37502 22.9167C8.79972 22.9167 8.33335 22.4503 8.33335 21.875C8.33335 21.2997 8.79972 20.8334 9.37502 20.8334C9.95032 20.8334 10.4167 21.2997 10.4167 21.875ZM21.875 21.875C21.875 22.4503 21.4087 22.9167 20.8334 22.9167C20.2581 22.9167 19.7917 22.4503 19.7917 21.875C19.7917 21.2997 20.2581 20.8334 20.8334 20.8334C21.4087 20.8334 21.875 21.2997 21.875 21.875Z" stroke="white" stroke-width="2" stroke-linecap="round" stroke-linejoin="round"/>
</svg>
