<svg width="27" height="27" viewBox="0 0 27 27" fill="none" xmlns="http://www.w3.org/2000/svg">
<path d="M23.9062 17.6625V6.73594C23.9062 4.72091 22.2791 3.09375 20.2641 3.09375H6.73594C4.72091 3.09375 3.09375 4.72091 3.09375 6.73594V20.2641C3.09375 22.2791 4.72091 23.9062 6.73594 23.9062H17.6625L23.9062 17.6625ZM6.73594 21.825C5.87506 21.825 5.175 21.1249 5.175 20.2641V6.73594C5.175 5.87506 5.87506 5.175 6.73594 5.175H20.2641C21.1249 5.175 21.825 5.87506 21.825 6.73594V16.6219H20.2641C18.249 16.6219 16.6219 18.249 16.6219 20.2641V21.825H6.73594ZM11.1728 11.1917C10.8984 10.2268 9.89565 9.65915 8.93071 9.93349C7.96577 10.2078 7.39815 11.2106 7.6725 12.185C7.74818 12.4499 7.88062 12.6864 8.05091 12.8851L11.2106 11.9958C11.2579 11.7309 11.2485 11.4566 11.1728 11.1917ZM17.6814 9.35642C17.4165 8.39148 16.4043 7.82386 15.4393 8.09821C14.4744 8.37256 13.9068 9.37534 14.1811 10.3497C14.2568 10.6146 14.3893 10.8511 14.5595 11.0498L17.7193 10.1605C17.7666 9.89565 17.7571 9.62131 17.6814 9.35642ZM18.6085 12.6107L8.58068 15.4393C9.93349 17.2273 12.2796 18.0977 14.5595 17.4544C16.8395 16.8111 18.3815 14.8339 18.6085 12.6107Z" fill="white"/>
</svg>
