<svg width="31" height="31" viewBox="0 0 31 31" fill="none" xmlns="http://www.w3.org/2000/svg">
<g clip-path="url(#clip0_2070_61)">
<path d="M15.5001 1.71945V29.2806M21.764 6.73056H12.3681C11.2052 6.73056 10.0899 7.19252 9.26765 8.01482C8.44536 8.83711 7.9834 9.95239 7.9834 11.1153C7.9834 12.2782 8.44536 13.3935 9.26765 14.2158C10.0899 15.038 11.2052 15.5 12.3681 15.5H18.632C19.7949 15.5 20.9102 15.962 21.7325 16.7843C22.5548 17.6066 23.0167 18.7218 23.0167 19.8847C23.0167 21.0476 22.5548 22.1629 21.7325 22.9852C20.9102 23.8075 19.7949 24.2695 18.632 24.2695H7.9834" stroke="#4B4B4B" stroke-width="2" stroke-linecap="round" stroke-linejoin="round"/>
</g>
<defs>
<clipPath id="clip0_2070_61">
<rect width="30.0667" height="30.0667" fill="white" transform="translate(0.466675 0.466675)"/>
</clipPath>
</defs>
</svg>
