<svg width="33" height="34" viewBox="0 0 33 34" fill="none" xmlns="http://www.w3.org/2000/svg">
<path d="M6.87451 26.747H8.83388L22.2745 13.3064L20.3151 11.3471L6.87451 24.7877V26.747ZM4.12451 29.497V23.6533L22.2745 5.53769C22.5495 5.28561 22.8531 5.09082 23.1854 4.95332C23.5177 4.81582 23.8672 4.74707 24.2339 4.74707C24.6005 4.74707 24.9557 4.81582 25.2995 4.95332C25.6432 5.09082 25.9412 5.29707 26.1932 5.57207L28.0839 7.49707C28.3589 7.74915 28.5594 8.04707 28.6854 8.39082C28.8115 8.73457 28.8745 9.07832 28.8745 9.42207C28.8745 9.78873 28.8115 10.1382 28.6854 10.4705C28.5594 10.8028 28.3589 11.1064 28.0839 11.3814L9.96826 29.497H4.12451ZM21.2776 12.3439L20.3151 11.3471L22.2745 13.3064L21.2776 12.3439Z" fill="#4B4B4B"/>
</svg>
