<svg width="32" height="32" viewBox="0 0 32 32" fill="none" xmlns="http://www.w3.org/2000/svg">
<path d="M25.6 17.5C26.4284 17.5 27.1 16.8284 27.1 16C27.1 15.1716 26.4284 14.5 25.6 14.5L25.6 17.5ZM3.73932 14.9393C3.15353 15.5251 3.15353 16.4749 3.73932 17.0607L13.2853 26.6066C13.871 27.1924 14.8208 27.1924 15.4066 26.6066C15.9924 26.0208 15.9924 25.0711 15.4066 24.4853L6.9213 16L15.4066 7.51472C15.9924 6.92893 15.9924 5.97918 15.4066 5.3934C14.8208 4.80761 13.871 4.80761 13.2853 5.3934L3.73932 14.9393ZM25.6 16L25.6 14.5L4.79998 14.5L4.79998 16L4.79998 17.5L25.6 17.5L25.6 16Z" fill="#4B4B4B"/>
</svg>
