<svg width="43" height="43" viewBox="0 0 43 43" fill="none" xmlns="http://www.w3.org/2000/svg">
<path d="M5.9231 11.2308H9.36925M9.36925 11.2308H36.9385M9.36925 11.2308V35.3539C9.36925 36.2679 9.73233 37.1444 10.3786 37.7907C11.0249 38.437 11.9014 38.8 12.8154 38.8H30.0462C30.9601 38.8 31.8367 38.437 32.483 37.7907C33.1293 37.1444 33.4923 36.2679 33.4923 35.3539V11.2308M14.5385 11.2308V7.78465C14.5385 6.87068 14.9016 5.99414 15.5478 5.34786C16.1941 4.70158 17.0707 4.3385 17.9846 4.3385H24.8769C25.7909 4.3385 26.6675 4.70158 27.3137 5.34786C27.96 5.99414 28.3231 6.87068 28.3231 7.78465V11.2308M17.9846 19.8462V30.1847M24.8769 19.8462V30.1847" stroke="#FF6A61" stroke-width="4" stroke-linecap="round" stroke-linejoin="round"/>
</svg>
