<svg width="22" height="22" viewBox="0 0 22 22" fill="none" xmlns="http://www.w3.org/2000/svg">
<g clip-path="url(#clip0_2403_71)">
<path d="M14.6667 19.25V17.4167C14.6667 16.4442 14.2803 15.5116 13.5927 14.8239C12.9051 14.1363 11.9725 13.75 11 13.75H4.58332C3.61086 13.75 2.67823 14.1363 1.9906 14.8239C1.30297 15.5116 0.916656 16.4442 0.916656 17.4167V19.25M18.3333 7.33333V12.8333M21.0833 10.0833H15.5833M11.4583 6.41667C11.4583 8.44171 9.8167 10.0833 7.79166 10.0833C5.76661 10.0833 4.12499 8.44171 4.12499 6.41667C4.12499 4.39162 5.76661 2.75 7.79166 2.75C9.8167 2.75 11.4583 4.39162 11.4583 6.41667Z" stroke="white" stroke-width="2" stroke-linecap="round" stroke-linejoin="round"/>
</g>
<defs>
<clipPath id="clip0_2403_71">
<rect width="22" height="22" fill="white"/>
</clipPath>
</defs>
</svg>
