<svg width="23" height="23" viewBox="0 0 23 23" fill="none" xmlns="http://www.w3.org/2000/svg">
<g clip-path="url(#clip0_2231_297)">
<path d="M11.6342 14.3781C13.1496 14.3781 14.3781 13.1496 14.3781 11.6342C14.3781 10.1187 13.1496 8.89025 11.6342 8.89025C10.1187 8.89025 8.89025 10.1187 8.89025 11.6342C8.89025 13.1496 10.1187 14.3781 11.6342 14.3781Z" stroke="#4B4B4B" stroke-width="2" stroke-linecap="round" stroke-linejoin="round"/>
<path d="M18.4024 14.3781C18.2807 14.6539 18.2444 14.9599 18.2982 15.2566C18.352 15.5533 18.4934 15.8271 18.7043 16.0427L18.7592 16.0976C18.9292 16.2675 19.0642 16.4692 19.1562 16.6913C19.2483 16.9133 19.2957 17.1514 19.2957 17.3918C19.2957 17.6322 19.2483 17.8702 19.1562 18.0923C19.0642 18.3143 18.9292 18.5161 18.7592 18.686C18.5893 18.8561 18.3875 18.991 18.1654 19.083C17.9434 19.1751 17.7053 19.2225 17.4649 19.2225C17.2246 19.2225 16.9865 19.1751 16.7644 19.083C16.5424 18.991 16.3406 18.8561 16.1707 18.686L16.1159 18.6311C15.9003 18.4203 15.6265 18.2788 15.3298 18.225C15.0331 18.1712 14.7271 18.2075 14.4512 18.3293C14.1807 18.4452 13.95 18.6377 13.7875 18.8831C13.625 19.1285 13.5378 19.4161 13.5366 19.7104V19.8659C13.5366 20.351 13.3439 20.8163 13.0008 21.1594C12.6578 21.5024 12.1925 21.6951 11.7073 21.6951C11.2222 21.6951 10.7569 21.5024 10.4138 21.1594C10.0708 20.8163 9.87806 20.351 9.87806 19.8659V19.7835C9.87098 19.4808 9.77298 19.1872 9.59682 18.9409C9.42065 18.6946 9.17446 18.507 8.89025 18.4024C8.61439 18.2807 8.30837 18.2444 8.01167 18.2982C7.71496 18.352 7.44118 18.4934 7.22562 18.7043L7.17074 18.7592C7.00085 18.9292 6.7991 19.0642 6.57704 19.1562C6.35497 19.2483 6.11693 19.2957 5.87653 19.2957C5.63614 19.2957 5.3981 19.2483 5.17603 19.1562C4.95396 19.0642 4.75222 18.9292 4.58233 18.7592C4.41225 18.5893 4.27732 18.3875 4.18527 18.1654C4.09321 17.9434 4.04583 17.7053 4.04583 17.4649C4.04583 17.2246 4.09321 16.9865 4.18527 16.7644C4.27732 16.5424 4.41225 16.3406 4.58233 16.1707L4.63721 16.1159C4.84806 15.9003 4.98951 15.6265 5.04331 15.3298C5.0971 15.0331 5.06079 14.7271 4.93903 14.4512C4.82309 14.1807 4.63058 13.95 4.38519 13.7875C4.1398 13.625 3.85225 13.5378 3.55794 13.5366H3.40245C2.9173 13.5366 2.45202 13.3439 2.10896 13.0008C1.76591 12.6578 1.57318 12.1925 1.57318 11.7073C1.57318 11.2222 1.76591 10.7569 2.10896 10.4138C2.45202 10.0708 2.9173 9.87806 3.40245 9.87806H3.48477C3.78751 9.87098 4.08111 9.77298 4.32742 9.59682C4.57372 9.42065 4.76134 9.17446 4.86586 8.89025C4.98762 8.61439 5.02393 8.30837 4.97014 8.01167C4.91634 7.71496 4.77489 7.44118 4.56403 7.22562L4.50916 7.17074C4.33908 7.00085 4.20415 6.7991 4.1121 6.57704C4.02004 6.35497 3.97266 6.11693 3.97266 5.87653C3.97266 5.63614 4.02004 5.3981 4.1121 5.17603C4.20415 4.95396 4.33908 4.75222 4.50916 4.58233C4.67905 4.41225 4.88079 4.27732 5.10286 4.18527C5.32493 4.09321 5.56297 4.04583 5.80336 4.04583C6.04376 4.04583 6.28179 4.09321 6.50386 4.18527C6.72593 4.27732 6.92768 4.41225 7.09757 4.58233L7.15245 4.63721C7.36801 4.84806 7.64179 4.98951 7.9385 5.04331C8.2352 5.0971 8.54122 5.06079 8.81708 4.93903H8.89025C9.16077 4.82309 9.39149 4.63058 9.554 4.38519C9.71651 4.1398 9.80371 3.85225 9.80489 3.55794V3.40245C9.80489 2.9173 9.99761 2.45202 10.3407 2.10896C10.6837 1.76591 11.149 1.57318 11.6342 1.57318C12.1193 1.57318 12.5846 1.76591 12.9276 2.10896C13.2707 2.45202 13.4634 2.9173 13.4634 3.40245V3.48477C13.4646 3.77908 13.5518 4.06663 13.7143 4.31202C13.8768 4.55741 14.1075 4.74992 14.3781 4.86586C14.6539 4.98762 14.9599 5.02393 15.2566 4.97014C15.5533 4.91634 15.8271 4.77489 16.0427 4.56403L16.0976 4.50916C16.2675 4.33908 16.4692 4.20415 16.6913 4.1121C16.9133 4.02004 17.1514 3.97266 17.3918 3.97266C17.6322 3.97266 17.8702 4.02004 18.0923 4.1121C18.3143 4.20415 18.5161 4.33908 18.686 4.50916C18.8561 4.67905 18.991 4.88079 19.083 5.10286C19.1751 5.32493 19.2225 5.56297 19.2225 5.80336C19.2225 6.04376 19.1751 6.28179 19.083 6.50386C18.991 6.72593 18.8561 6.92768 18.686 7.09757L18.6311 7.15245C18.4203 7.36801 18.2788 7.64179 18.225 7.9385C18.1712 8.2352 18.2075 8.54122 18.3293 8.81708V8.89025C18.4452 9.16077 18.6377 9.39149 18.8831 9.554C19.1285 9.71651 19.4161 9.80371 19.7104 9.80489H19.8659C20.351 9.80489 20.8163 9.99761 21.1594 10.3407C21.5024 10.6837 21.6951 11.149 21.6951 11.6342C21.6951 12.1193 21.5024 12.5846 21.1594 12.9276C20.8163 13.2707 20.351 13.4634 19.8659 13.4634H19.7835C19.4892 13.4646 19.2017 13.5518 18.9563 13.7143C18.7109 13.8768 18.5184 14.1075 18.4024 14.3781Z" stroke="#4B4B4B" stroke-width="2" stroke-linecap="round" stroke-linejoin="round"/>
</g>
<defs>
<clipPath id="clip0_2231_297">
<rect width="21.9512" height="21.9512" fill="white" transform="translate(0.658569 0.658539)"/>
</clipPath>
</defs>
</svg>
