<svg width="29" height="29" viewBox="0 0 29 29" fill="none" xmlns="http://www.w3.org/2000/svg">
<path d="M14.25 26.5833C12.6073 26.5833 11.0635 26.2661 9.61875 25.6317C8.17396 24.9974 6.91719 24.1364 5.84844 23.0489C4.77969 21.9614 3.93359 20.6826 3.31016 19.2125C2.68672 17.7423 2.375 16.1715 2.375 14.5C2.375 12.8284 2.68672 11.2576 3.31016 9.78746C3.93359 8.31732 4.77969 7.0385 5.84844 5.951C6.91719 4.8635 8.17396 4.00256 9.61875 3.36819C11.0635 2.73381 12.6073 2.41663 14.25 2.41663C15.8927 2.41663 17.4365 2.73381 18.8813 3.36819C20.326 4.00256 21.5828 4.8635 22.6516 5.951C23.7203 7.0385 24.5664 8.31732 25.1898 9.78746C25.8133 11.2576 26.125 12.8284 26.125 14.5C26.125 16.1715 25.8133 17.7423 25.1898 19.2125C24.5664 20.6826 23.7203 21.9614 22.6516 23.0489C21.5828 24.1364 20.326 24.9974 18.8813 25.6317C17.4365 26.2661 15.8927 26.5833 14.25 26.5833ZM14.25 24.1666C16.9021 24.1666 19.1484 23.2302 20.9891 21.3573C22.8297 19.4843 23.75 17.1986 23.75 14.5C23.75 11.8013 22.8297 9.51558 20.9891 7.64267C19.1484 5.76975 16.9021 4.83329 14.25 4.83329C11.5979 4.83329 9.35156 5.76975 7.51094 7.64267C5.67031 9.51558 4.75 11.8013 4.75 14.5C4.75 17.1986 5.67031 19.4843 7.51094 21.3573C9.35156 23.2302 11.5979 24.1666 14.25 24.1666Z" fill="white"/>
<path d="M14.25 7.25V21.1458" stroke="white" stroke-linecap="round" stroke-linejoin="round"/>
<path d="M17.2188 10.2709H12.7656C12.2145 10.2709 11.6859 10.4777 11.2962 10.846C10.9064 11.2142 10.6875 11.7137 10.6875 12.2344C10.6875 12.7552 10.9064 13.2546 11.2962 13.6228C11.6859 13.9911 12.2145 14.198 12.7656 14.198H15.7344C16.2855 14.198 16.8141 14.4048 17.2038 14.7731C17.5936 15.1413 17.8125 15.6407 17.8125 16.1615C17.8125 16.6823 17.5936 17.1817 17.2038 17.5499C16.8141 17.9182 16.2855 18.125 15.7344 18.125H10.6875" stroke="white" stroke-linecap="round" stroke-linejoin="round"/>
</svg>
