<svg width="29" height="29" viewBox="0 0 29 29" fill="none" xmlns="http://www.w3.org/2000/svg">
<path d="M14.25 26.5833C12.6073 26.5833 11.0635 26.2661 9.61875 25.6318C8.17396 24.9974 6.91719 24.1364 5.84844 23.0489C4.77969 21.9614 3.93359 20.6826 3.31016 19.2125C2.68672 17.7424 2.375 16.1715 2.375 14.5C2.375 12.8285 2.68672 11.2576 3.31016 9.78749C3.93359 8.31735 4.77969 7.03853 5.84844 5.95103C6.91719 4.86353 8.17396 4.00259 9.61875 3.36822C11.0635 2.73384 12.6073 2.41666 14.25 2.41666C15.8927 2.41666 17.4365 2.73384 18.8813 3.36822C20.326 4.00259 21.5828 4.86353 22.6516 5.95103C23.7203 7.03853 24.5664 8.31735 25.1898 9.78749C25.8133 11.2576 26.125 12.8285 26.125 14.5C26.125 16.1715 25.8133 17.7424 25.1898 19.2125C24.5664 20.6826 23.7203 21.9614 22.6516 23.0489C21.5828 24.1364 20.326 24.9974 18.8813 25.6318C17.4365 26.2661 15.8927 26.5833 14.25 26.5833ZM14.25 24.1667C16.9021 24.1667 19.1484 23.2302 20.9891 21.3573C22.8297 19.4844 23.75 17.1986 23.75 14.5C23.75 11.8014 22.8297 9.51562 20.9891 7.6427C19.1484 5.76978 16.9021 4.83332 14.25 4.83332C11.5979 4.83332 9.35156 5.76978 7.51094 7.6427C5.67031 9.51562 4.75 11.8014 4.75 14.5C4.75 17.1986 5.67031 19.4844 7.51094 21.3573C9.35156 23.2302 11.5979 24.1667 14.25 24.1667Z" fill="#4B4B4B"/>
<path d="M14.25 7.25V21.1458" stroke="#4B4B4B" stroke-linecap="round" stroke-linejoin="round"/>
<path d="M17.2188 10.2708H12.7656C12.2145 10.2708 11.6859 10.4777 11.2962 10.846C10.9064 11.2142 10.6875 11.7136 10.6875 12.2344C10.6875 12.7551 10.9064 13.2546 11.2962 13.6228C11.6859 13.9911 12.2145 14.1979 12.7656 14.1979H15.7344C16.2855 14.1979 16.8141 14.4048 17.2038 14.773C17.5936 15.1413 17.8125 15.6407 17.8125 16.1615C17.8125 16.6822 17.5936 17.1817 17.2038 17.5499C16.8141 17.9181 16.2855 18.125 15.7344 18.125H10.6875" stroke="#4B4B4B" stroke-linecap="round" stroke-linejoin="round"/>
</svg>
