<svg width="29" height="29" viewBox="0 0 29 29" fill="none" xmlns="http://www.w3.org/2000/svg">
<path d="M7.06877 20.6625C8.09585 19.877 9.24377 19.2578 10.5125 18.8046C11.7813 18.3515 13.1104 18.125 14.5 18.125C15.8896 18.125 17.2188 18.3515 18.4875 18.8046C19.7563 19.2578 20.9042 19.877 21.9313 20.6625C22.6361 19.8368 23.1849 18.9003 23.5776 17.8531C23.9703 16.8059 24.1667 15.6882 24.1667 14.5C24.1667 11.8215 23.2252 9.54076 21.3422 7.65777C19.4592 5.77479 17.1785 4.83329 14.5 4.83329C11.8215 4.83329 9.54082 5.77479 7.65783 7.65777C5.77485 9.54076 4.83335 11.8215 4.83335 14.5C4.83335 15.6882 5.02971 16.8059 5.42242 17.8531C5.81512 18.9003 6.36391 19.8368 7.06877 20.6625ZM14.5 15.7083C13.3118 15.7083 12.3099 15.3005 11.4943 14.4849C10.6787 13.6692 10.2709 12.6673 10.2709 11.4791C10.2709 10.2909 10.6787 9.28902 11.4943 8.4734C12.3099 7.65777 13.3118 7.24996 14.5 7.24996C15.6882 7.24996 16.6901 7.65777 17.5058 8.4734C18.3214 9.28902 18.7292 10.2909 18.7292 11.4791C18.7292 12.6673 18.3214 13.6692 17.5058 14.4849C16.6901 15.3005 15.6882 15.7083 14.5 15.7083ZM14.5 26.5833C12.8285 26.5833 11.2577 26.2661 9.78752 25.6317C8.31738 24.9974 7.03856 24.1364 5.95106 23.0489C4.86356 21.9614 4.00262 20.6826 3.36825 19.2125C2.73387 17.7423 2.41669 16.1715 2.41669 14.5C2.41669 12.8284 2.73387 11.2576 3.36825 9.78746C4.00262 8.31732 4.86356 7.0385 5.95106 5.951C7.03856 4.8635 8.31738 4.00256 9.78752 3.36819C11.2577 2.73381 12.8285 2.41663 14.5 2.41663C16.1715 2.41663 17.7424 2.73381 19.2125 3.36819C20.6827 4.00256 21.9615 4.8635 23.049 5.951C24.1365 7.0385 24.9974 8.31732 25.6318 9.78746C26.2662 11.2576 26.5834 12.8284 26.5834 14.5C26.5834 16.1715 26.2662 17.7423 25.6318 19.2125C24.9974 20.6826 24.1365 21.9614 23.049 23.0489C21.9615 24.1364 20.6827 24.9974 19.2125 25.6317C17.7424 26.2661 16.1715 26.5833 14.5 26.5833Z" fill="white"/>
</svg>
