<svg width="29" height="29" viewBox="0 0 29 29" fill="none" xmlns="http://www.w3.org/2000/svg">
<path d="M7.06876 20.6625C8.09584 19.8771 9.24376 19.2578 10.5125 18.8047C11.7813 18.3516 13.1104 18.125 14.5 18.125C15.8896 18.125 17.2188 18.3516 18.4875 18.8047C19.7563 19.2578 20.9042 19.8771 21.9313 20.6625C22.6361 19.8368 23.1849 18.9003 23.5776 17.8531C23.9703 16.8059 24.1667 15.6882 24.1667 14.5C24.1667 11.8215 23.2252 9.54079 21.3422 7.6578C19.4592 5.77482 17.1785 4.83332 14.5 4.83332C11.8215 4.83332 9.5408 5.77482 7.65782 7.6578C5.77483 9.54079 4.83334 11.8215 4.83334 14.5C4.83334 15.6882 5.02969 16.8059 5.4224 17.8531C5.81511 18.9003 6.36389 19.8368 7.06876 20.6625ZM14.5 15.7083C13.3118 15.7083 12.3099 15.3005 11.4943 14.4849C10.6787 13.6693 10.2708 12.6674 10.2708 11.4792C10.2708 10.291 10.6787 9.28905 11.4943 8.47343C12.3099 7.6578 13.3118 7.24999 14.5 7.24999C15.6882 7.24999 16.6901 7.6578 17.5057 8.47343C18.3214 9.28905 18.7292 10.291 18.7292 11.4792C18.7292 12.6674 18.3214 13.6693 17.5057 14.4849C16.6901 15.3005 15.6882 15.7083 14.5 15.7083ZM14.5 26.5833C12.8285 26.5833 11.2576 26.2661 9.78751 25.6318C8.31737 24.9974 7.03855 24.1364 5.95105 23.0489C4.86355 21.9614 4.00261 20.6826 3.36823 19.2125C2.73386 17.7424 2.41667 16.1715 2.41667 14.5C2.41667 12.8285 2.73386 11.2576 3.36823 9.78749C4.00261 8.31735 4.86355 7.03853 5.95105 5.95103C7.03855 4.86353 8.31737 4.00259 9.78751 3.36822C11.2576 2.73384 12.8285 2.41666 14.5 2.41666C16.1715 2.41666 17.7424 2.73384 19.2125 3.36822C20.6826 4.00259 21.9615 4.86353 23.049 5.95103C24.1365 7.03853 24.9974 8.31735 25.6318 9.78749C26.2662 11.2576 26.5833 12.8285 26.5833 14.5C26.5833 16.1715 26.2662 17.7424 25.6318 19.2125C24.9974 20.6826 24.1365 21.9614 23.049 23.0489C21.9615 24.1364 20.6826 24.9974 19.2125 25.6318C17.7424 26.2661 16.1715 26.5833 14.5 26.5833Z" fill="#4B4B4B"/>
</svg>
